<svg xmlns="http://www.w3.org/2000/svg" class="fontAboveSlogan" viewBox="0 0 1809.61 193"><g id="543f9bde-e506-4acf-9d6c-03d01027af49" fill="#fff"><path d="M5.04 3.46L1.00 12.67L0.24 12.67L4.66 2.90L5.52 2.90L9.96 12.67L9.11 12.67L7.66 9.39L3.55 9.39L3.83 8.78L7.39 8.78L5.04 3.46ZM12.01 12.67L11.29 12.67L11.29 2.90L15.33 2.90L15.33 2.90Q17.98 2.90 17.98 5.24L17.98 5.24L17.98 5.24Q17.98 7.27 15.10 8.12L15.10 8.12L18.40 12.67L17.42 12.67L14.17 8.14L14.17 7.66L14.17 7.66Q17.18 7.21 17.18 5.30L17.18 5.30L17.18 5.30Q17.18 3.53 15.21 3.53L15.21 3.53L12.01 3.53L12.01 12.67ZM19.67 12.33L19.67 12.33L19.67 11.58L19.67 11.58Q21.21 12.13 23.06 12.13L23.06 12.13L23.06 12.13Q26.13 12.13 26.13 9.80L26.13 9.80L26.13 9.80Q26.13 8.09 24.13 8.09L24.13 8.09L22.12 8.09L22.12 8.09Q19.39 8.09 19.39 5.63L19.39 5.63L19.39 5.63Q19.39 2.83 23.39 2.83L23.39 2.83L23.39 2.83Q25.03 2.83 26.57 3.24L26.57 3.24L26.57 3.92L26.57 3.92Q25.03 3.45 23.39 3.45L23.39 3.45L23.39 3.45Q20.11 3.45 20.11 5.63L20.11 5.63L20.11 5.63Q20.11 7.41 22.12 7.41L22.12 7.41L24.13 7.41L24.13 7.41Q26.84 7.41 26.84 9.80L26.84 9.80L26.84 9.80Q26.84 12.74 23.06 12.74L23.06 12.74L23.06 12.74Q21.21 12.74 19.67 12.33Z" transform="matrix(12.108981013893429,0,0,12.108981013893429,741.2844070541007,-33.43841732911905)"/></g><g id="03016680-0bd5-4859-81f4-e4d277f469a7" fill="#fff"><path d="M5.29 2.21L3.98 2.21L0.04 11.48L1.20 11.48L2.34 8.79L6.93 8.79L8.06 11.48L9.23 11.48ZM2.74 7.83L4.63 3.30L6.52 7.83ZM23.24 6.75C23.90 6.45 24.49 5.85 24.49 4.66C24.49 3.54 23.74 2.21 21.56 2.21L17.40 2.21L17.40 11.48L21.80 11.48C23.91 11.48 24.96 10.43 24.96 9.04C24.96 7.66 24.02 7 23.24 6.75ZM18.45 3.21L21.67 3.21C22.95 3.21 23.44 3.98 23.44 4.75C23.44 5.88 22.53 6.36 21.56 6.36L18.45 6.36ZM21.91 10.49L18.45 10.49L18.45 7.31L21.80 7.31C23.27 7.31 23.91 8.09 23.91 8.96C23.91 9.93 23.18 10.49 21.91 10.49ZM34.72 2.21L33.67 2.21L33.67 11.48L34.72 11.48ZM50.93 2.21L50.93 10.01L45.21 2.21L43.99 2.21L43.99 11.48L45.04 11.48L45.04 3.65L50.76 11.48L51.98 11.48L51.98 2.21ZM65.41 2.21L64.09 2.21L60.16 11.48L61.32 11.48L62.45 8.79L67.05 8.79L68.18 11.48L69.34 11.48ZM62.86 7.83L64.75 3.30L66.64 7.83ZM78.13 4.65C78.13 4.03 78.50 3.08 80.60 3.08C82.29 3.08 83.08 3.82 83.19 4.75L84.27 4.75C84.18 3.36 83.06 2.10 80.60 2.10C78.27 2.10 77.11 3.15 77.11 4.66C77.11 7.84 83.45 6.69 83.45 8.96C83.45 10.05 82.47 10.60 80.91 10.60C79.30 10.60 77.99 10.05 77.92 8.71L76.83 8.71C76.97 10.37 78.09 11.59 80.84 11.59C83.12 11.59 84.50 10.64 84.50 8.92C84.50 5.68 78.13 6.80 78.13 4.65ZM99.57 2.21L99.57 6.33L94.18 6.33L94.18 2.21L93.13 2.21L93.13 11.48L94.18 11.48L94.18 7.35L99.57 7.35L99.57 11.48L100.62 11.48L100.62 2.21ZM120.92 7.92L124.14 7.92L126.38 11.48L127.62 11.48L125.19 7.74C126.22 7.50 127.43 6.90 127.43 5.11C127.43 3.35 126.21 2.21 124.31 2.21L119.87 2.21L119.87 11.48L120.92 11.48ZM120.92 3.21L124.18 3.21C125.50 3.21 126.38 3.93 126.38 5.11C126.38 6.55 125.12 6.93 124.12 6.93L120.92 6.93ZM140.39 2.21L139.08 2.21L135.14 11.48L136.30 11.48L137.44 8.79L142.03 8.79L143.16 11.48L144.33 11.48ZM137.84 7.83L139.73 3.30L141.62 7.83ZM160.30 2.21L157.04 6.61L153.72 2.21L152.50 2.21L152.50 11.48L153.55 11.48L153.55 3.81L157.04 8.22L160.47 3.81L160.47 11.48L161.52 11.48L161.52 2.21ZM181.38 4.65C181.38 4.03 181.75 3.08 183.85 3.08C185.54 3.08 186.33 3.82 186.44 4.75L187.52 4.75C187.43 3.36 186.31 2.10 183.85 2.10C181.52 2.10 180.36 3.15 180.36 4.66C180.36 7.84 186.70 6.69 186.70 8.96C186.70 10.05 185.72 10.60 184.16 10.60C182.55 10.60 181.24 10.05 181.17 8.71L180.08 8.71C180.22 10.37 181.34 11.59 184.09 11.59C186.37 11.59 187.75 10.64 187.75 8.92C187.75 5.68 181.38 6.80 181.38 4.65ZM203.10 2.21L203.10 7.52C203.10 9.67 201.67 10.57 200.20 10.57C198.73 10.57 197.32 9.67 197.32 7.52L197.32 2.21L196.27 2.21L196.27 7.49C196.27 9.95 197.89 11.59 200.20 11.59C202.52 11.59 204.15 9.94 204.15 7.49L204.15 2.21ZM220.25 2.21L220.25 10.01L214.52 2.21L213.30 2.21L213.30 11.48L214.35 11.48L214.35 3.65L220.08 11.48L221.30 11.48L221.30 2.21ZM237.15 2.21L229.63 2.21L229.63 3.22L232.86 3.22L232.86 11.48L233.91 11.48L233.91 3.22L237.15 3.22ZM251.92 2.21L251.92 6.33L246.53 6.33L246.53 2.21L245.48 2.21L245.48 11.48L246.53 11.48L246.53 7.35L251.92 7.35L251.92 11.48L252.97 11.48L252.97 2.21ZM266.39 2.21L265.08 2.21L261.14 11.48L262.30 11.48L263.44 8.79L268.03 8.79L269.16 11.48L270.33 11.48ZM263.84 7.83L265.73 3.30L267.62 7.83ZM279.55 7.92L282.77 7.92L285.01 11.48L286.26 11.48L283.82 7.74C284.86 7.50 286.06 6.90 286.06 5.11C286.06 3.35 284.84 2.21 282.94 2.21L278.50 2.21L278.50 11.48L279.55 11.48ZM279.55 3.21L282.81 3.21C284.13 3.21 285.01 3.93 285.01 5.11C285.01 6.55 283.75 6.93 282.76 6.93L279.55 6.93Z" transform="matrix(6.32244483109513,0,0,6.32244483109513,-0.25289050286812653,119.72286502714408)"/></g></svg>